<svg width="41" height="49" viewBox="0 0 41 49" fill="none" xmlns="http://www.w3.org/2000/svg">
<path d="M25.8901 48.0545C27.4923 48.0545 28.8895 46.6609 28.8895 45.0628V38.076H30.8923C32.0941 38.076 32.8951 37.2769 32.8951 36.0784V16.1232H8.88083V36.0786C8.88083 37.2771 9.68198 38.0762 10.8836 38.0762H12.8866V45.063C12.8866 46.6611 14.2834 48.0547 15.886 48.0547C17.488 48.0547 18.8852 46.6611 18.8852 45.063V38.0762H22.8908V45.063C22.8907 46.6609 24.2879 48.0545 25.8901 48.0545Z" fill="#A6D864"/>
<path d="M37.8974 36.0787C39.4996 36.0787 40.8965 34.6853 40.8965 33.0871V19.1135C40.8965 17.5239 39.4997 16.1232 37.8974 16.1232C36.295 16.1232 34.8979 17.524 34.8979 19.1135V33.0871C34.8979 34.6851 36.2949 36.0787 37.8974 36.0787Z" fill="#A6D864"/>
<path d="M3.87855 36.0787C5.48094 36.0787 6.87799 34.6853 6.87799 33.0871V19.1135C6.87799 17.5239 5.48113 16.1232 3.87855 16.1232C2.27635 16.1232 0.879395 17.524 0.879395 19.1135V33.0871C0.879488 34.6851 2.27635 36.0787 3.87855 36.0787Z" fill="#A6D864"/>
<path d="M30.4915 0.561167C30.0912 0.159298 29.4951 0.159298 29.0947 0.561167L26.4085 3.23143L26.2846 3.35483C24.6918 2.55931 22.906 2.16202 20.9173 2.15819C20.9076 2.15819 20.898 2.15791 20.8882 2.15791H20.888C20.8778 2.15791 20.8686 2.15819 20.8586 2.15819C18.87 2.16202 17.0843 2.55931 15.4916 3.35483L15.3674 3.23143L12.6812 0.561167C12.2806 0.159298 11.6848 0.159298 11.2844 0.561167C10.8837 0.960796 10.8837 1.55394 11.2844 1.95329L13.8828 4.54541C13.0455 5.10299 12.2863 5.78528 11.6261 6.56568C10.0455 8.43434 9.03722 10.8664 8.89861 13.5014C8.8973 13.5289 8.89459 13.556 8.89337 13.5834C8.88485 13.7628 8.88092 13.9432 8.88092 14.1243H32.8951C32.8951 13.9433 32.8908 13.7629 32.8826 13.5834C32.8813 13.556 32.8786 13.5289 32.877 13.5014C32.7387 10.8664 31.7302 8.43425 30.1496 6.56586C29.4896 5.78546 28.7301 5.10317 27.8929 4.5456L30.4915 1.95347C30.8923 1.55394 30.8923 0.960889 30.4915 0.561167ZM15.8822 10.6365C15.0536 10.6365 14.3818 9.96649 14.3818 9.13997C14.3818 8.31346 15.0535 7.64349 15.8822 7.64349C16.7107 7.64349 17.3826 8.31346 17.3826 9.13997C17.3826 9.96649 16.7107 10.6365 15.8822 10.6365ZM25.8937 10.6365C25.0652 10.6365 24.3934 9.96649 24.3934 9.13997C24.3934 8.31346 25.0651 7.64349 25.8937 7.64349C26.7223 7.64349 27.3941 8.31346 27.3941 9.13997C27.3941 9.96649 26.7224 10.6365 25.8937 10.6365Z" fill="#A6D864"/>
</svg>
