<svg width="40" height="26" viewBox="0 0 40 26" fill="none" xmlns="http://www.w3.org/2000/svg">
<path d="M35.4373 19.3933V21.0563C35.4373 22.8939 33.945 24.3822 32.1027 24.3822H4.59239C2.75004 24.3822 1.25781 22.8939 1.25781 21.0563V5.25817C1.25781 3.4206 2.75004 1.93225 4.59239 1.93225H32.1027C33.945 1.93225 35.4373 3.4206 35.4373 5.25817V6.92113H37.1046C38.0249 6.92113 38.7719 7.66613 38.7719 8.58409V17.7304C38.7719 18.6483 38.0249 19.3933 37.1046 19.3933H35.4373Z" fill="#FAFAFA"/>
<path d="M6.25964 20.6405C5.56937 20.6405 5.00916 20.0818 5.00916 19.3933V6.92116C5.00916 6.2327 5.56937 5.67395 6.25964 5.67395C6.94991 5.67395 7.51013 6.2327 7.51013 6.92116V19.3933C7.51013 20.0818 6.94991 20.6405 6.25964 20.6405Z" fill="black"/>
<path d="M11.2615 20.6405C10.5713 20.6405 10.0111 20.0818 10.0111 19.3933V6.92116C10.0111 6.2327 10.5713 5.67395 11.2615 5.67395C11.9518 5.67395 12.512 6.2327 12.512 6.92116V19.3933C12.512 20.0818 11.9518 20.6405 11.2615 20.6405Z" fill="black"/>
<path d="M16.2634 20.6405C15.5732 20.6405 15.0129 20.0818 15.0129 19.3933V6.92116C15.0129 6.2327 15.5732 5.67395 16.2634 5.67395C16.9537 5.67395 17.5139 6.2327 17.5139 6.92116V19.3933C17.5139 20.0818 16.9537 20.6405 16.2634 20.6405Z" fill="black"/>
<path d="M21.2653 20.6405C20.575 20.6405 20.0148 20.0818 20.0148 19.3933V6.92116C20.0148 6.2327 20.575 5.67395 21.2653 5.67395C21.9555 5.67395 22.5157 6.2327 22.5157 6.92116V19.3933C22.5157 20.0818 21.9555 20.6405 21.2653 20.6405Z" fill="black"/>
<path d="M26.2672 20.6405C25.5769 20.6405 25.0167 20.0818 25.0167 19.3933V6.92116C25.0167 6.2327 25.5769 5.67395 26.2672 5.67395C26.9575 5.67395 27.5177 6.2327 27.5177 6.92116V19.3933C27.5177 20.0818 26.9575 20.6405 26.2672 20.6405Z" fill="black"/>
<path d="M31.269 20.6405C30.5788 20.6405 30.0186 20.0818 30.0186 19.3933V6.92116C30.0186 6.2327 30.5788 5.67395 31.269 5.67395C31.9593 5.67395 32.5195 6.2327 32.5195 6.92116V19.3933C32.5195 20.0818 31.9593 20.6405 31.269 20.6405Z" fill="black"/>
<path d="M32.1027 25.6295H4.59238C2.06476 25.6295 0.00732422 23.5791 0.00732422 21.0564V5.25821C0.00732422 2.73549 2.06476 0.685059 4.59238 0.685059H32.1027C34.6303 0.685059 36.6877 2.73549 36.6877 5.25821V5.67395H37.0896C38.6985 5.67395 40.0073 6.97938 40.0073 8.58414V17.7304C40.0073 19.3352 38.6985 20.6406 37.0896 20.6406H36.6877V21.0564C36.6877 23.5791 34.6303 25.6295 32.1027 25.6295ZM4.59238 3.1795C3.44361 3.1795 2.50826 4.11243 2.50826 5.25821V21.0564C2.50826 22.2021 3.44361 23.1351 4.59238 23.1351H32.1027C33.2515 23.1351 34.1868 22.2021 34.1868 21.0564V19.3934C34.1868 18.7049 34.747 18.1462 35.4373 18.1462H37.0896C37.3196 18.1462 37.5064 17.9599 37.5064 17.7304V8.58414C37.5064 8.35465 37.3196 8.1684 37.0896 8.1684H35.4373C34.747 8.1684 34.1868 7.60964 34.1868 6.92117V5.25821C34.1868 4.11243 33.2515 3.1795 32.1027 3.1795H4.59238Z" fill="black"/>
</svg>
