<svg width="40" height="40" viewBox="0 0 40 40" fill="none" xmlns="http://www.w3.org/2000/svg">
<path d="M37.6626 29.6217C37.4339 29.4462 37.1352 29.39 36.8423 29.4676L33.5915 30.329C33.087 30.4627 32.7066 30.9631 32.7066 31.493V35.5714C32.4444 35.4614 32.152 35.3996 31.8436 35.3996C30.7216 35.3996 29.8087 36.214 29.8087 37.215C29.8087 38.216 30.7216 39.0304 31.8436 39.0304C32.9656 39.0304 33.8785 38.216 33.8785 37.215C33.8785 37.1896 33.8785 33.5713 33.8785 33.5713L37.1432 32.7052C37.6476 32.5716 38.0281 32.0712 38.0281 31.5412V30.3911C38.0281 30.0802 37.8949 29.7999 37.6626 29.6217ZM31.8436 37.8615C31.3758 37.8615 30.9806 37.5654 30.9806 37.2149C30.9806 36.8645 31.3758 36.5684 31.8436 36.5684C32.3113 36.5684 32.7066 36.8645 32.7066 37.2149C32.7065 37.5654 32.3113 37.8615 31.8436 37.8615ZM36.8289 31.5789L33.8784 32.3617L33.878 31.4988C33.8803 31.4866 33.8942 31.4651 33.9056 31.4551L36.8562 30.6733L36.8565 31.5352C36.8542 31.5475 36.8404 31.5689 36.8289 31.5789Z" fill="black"/>
<path d="M38.3085 11.3444C38.1617 11.0568 37.8088 10.9424 37.5205 11.0887C37.2321 11.2351 37.1174 11.587 37.2642 11.8746C39.3476 15.9571 39.3476 22.5998 37.2642 26.6822C37.1174 26.9698 37.2321 27.3217 37.5205 27.4681C37.6057 27.5114 37.6964 27.5319 37.7858 27.5319C37.9992 27.5319 38.205 27.4151 38.3084 27.2124C39.3948 25.0836 39.9932 22.2659 39.9932 19.2784C39.9932 16.2909 39.3949 13.4732 38.3085 11.3444Z" fill="black"/>
<path d="M35.6594 23.819C35.7446 23.8623 35.8353 23.8827 35.9247 23.8827C36.1381 23.8827 36.3439 23.7659 36.4474 23.5631C37.6735 21.1599 37.6735 17.3947 36.4474 14.9914C36.3006 14.7038 35.9478 14.5891 35.6594 14.7356C35.3711 14.882 35.2562 15.2339 35.4029 15.5215C36.4595 17.5925 36.4595 20.9621 35.4029 23.033C35.2562 23.3207 35.3711 23.6726 35.6594 23.819Z" fill="black"/>
<path d="M30.2216 9.0755C27.4901 6.34994 23.8575 4.849 19.9929 4.849C16.1284 4.849 12.4953 6.34994 9.76264 9.0755C4.1245 14.7014 4.1245 23.8555 9.7628 29.4815C12.143 31.8546 15.2957 33.333 18.6399 33.6444C19.0877 33.6861 19.5358 33.7068 19.9831 33.7068C22.8326 33.7068 25.6405 32.8681 28.0104 31.2903C28.2796 31.1111 28.3521 30.7482 28.1725 30.4798C27.9927 30.2113 27.6289 30.139 27.3598 30.3182C22.1135 33.811 15.0614 33.1115 10.5914 28.6551C5.4099 23.4848 5.4099 15.0722 10.5913 9.90194C13.1025 7.39721 16.4413 6.01783 19.9928 6.01783C23.5443 6.01783 26.8825 7.39713 29.3927 9.90194C34.5764 15.0722 34.5764 23.4847 29.3927 28.6549C29.1639 28.8832 29.1639 29.2532 29.3927 29.4815C29.6216 29.7096 29.9925 29.7096 30.2214 29.4815C35.862 23.8556 35.862 14.7014 30.2216 9.0755Z" fill="black"/>
<path d="M12.9338 12.0542C13.1655 11.8289 13.1703 11.4589 12.9444 11.2278C12.7185 10.9966 12.3476 10.992 12.1159 11.2172C9.91819 13.3538 8.70779 16.2163 8.70779 19.2773C8.70779 25.4841 13.7705 30.5337 19.9933 30.5337C26.216 30.5337 31.2787 25.4841 31.2787 19.2773C31.2787 13.0705 26.2159 8.02087 19.9932 8.02087C18.0059 8.02087 16.051 8.54412 14.3396 9.53405C14.0597 9.69597 13.9644 10.0536 14.1267 10.3328C14.2891 10.612 14.6477 10.7072 14.9275 10.5452C16.4605 9.65841 18.2121 9.18971 19.9931 9.18971C25.5698 9.18971 30.1067 13.715 30.1067 19.2774C30.1067 24.8397 25.5698 29.3649 19.9931 29.3649C14.4165 29.3649 9.87951 24.8397 9.87951 19.2774C9.87959 16.5342 10.9643 13.969 12.9338 12.0542Z" fill="black"/>
<path d="M2.94577 4.30099L4.37499 5.02356L5.10007 6.45047C5.26311 6.76918 5.48929 6.93079 5.77233 6.93079H5.77397C5.96905 6.93032 6.2439 6.84632 6.44499 6.44899L7.16937 5.02356L8.59765 4.30138C8.91921 4.13946 9.08226 3.91356 9.08234 3.63008C9.08234 3.34644 8.91937 3.12055 8.59851 2.95894L7.16937 2.23644L6.4453 0.811632C6.28312 0.49145 6.05702 0.328748 5.77319 0.328125C5.77272 0.328125 5.77218 0.328125 5.77171 0.328125C5.57679 0.328125 5.30265 0.411502 5.09921 0.809061L4.37491 2.23652L2.94647 2.95862C2.54741 3.15974 2.46319 3.43387 2.4628 3.62844C2.46225 3.91138 2.62436 4.13751 2.94577 4.30099ZM5.07585 3.19255C5.1871 3.13629 5.27741 3.04613 5.33374 2.93517L5.77187 2.07179L6.21077 2.93548C6.2671 3.04636 6.35733 3.13636 6.46851 3.19255L7.33382 3.63L6.46843 4.06753C6.35733 4.12372 6.26702 4.21372 6.21069 4.3246L5.7721 5.18767L5.33358 4.3246C5.27726 4.21372 5.18702 4.12372 5.07585 4.06753L4.21046 3.63L5.07585 3.19255Z" fill="black"/>
<path d="M30.8111 5.42163H31.3943C31.7179 5.42163 31.9802 5.16024 31.9802 4.83765C31.9802 4.51505 31.7179 4.25366 31.3943 4.25366H30.8111C30.4875 4.25366 30.2252 4.51505 30.2252 4.83765C30.2252 5.16024 30.4875 5.42163 30.8111 5.42163Z" fill="black"/>
<path d="M34.0071 5.42163H34.5903C34.9139 5.42163 35.1762 5.16024 35.1762 4.83765C35.1762 4.51505 34.9139 4.25366 34.5903 4.25366H34.0071C33.6835 4.25366 33.4212 4.51505 33.4212 4.83765C33.4212 5.16024 33.6835 5.42163 34.0071 5.42163Z" fill="black"/>
<path d="M32.7007 7.3064C33.0243 7.3064 33.2866 7.04495 33.2866 6.72229V6.14099C33.2866 5.81833 33.0243 5.55688 32.7007 5.55688C32.377 5.55688 32.1147 5.81833 32.1147 6.14099V6.72229C32.1147 7.04487 32.3771 7.3064 32.7007 7.3064Z" fill="black"/>
<path d="M32.7007 4.11853C33.0243 4.11853 33.2866 3.85707 33.2866 3.53438V2.95304C33.2866 2.63036 33.0243 2.3689 32.7007 2.3689C32.377 2.3689 32.1147 2.63036 32.1147 2.95304V3.53438C32.1147 3.85707 32.3771 4.11853 32.7007 4.11853Z" fill="black"/>
<path d="M9.1753 33.1344H8.59225C8.26866 33.1344 8.00632 33.3958 8.00632 33.7184C8.00632 34.041 8.26866 34.3024 8.59225 34.3024H9.1753C9.49889 34.3024 9.76123 34.041 9.76123 33.7184C9.76123 33.3958 9.49889 33.1344 9.1753 33.1344Z" fill="black"/>
<path d="M5.97927 33.1344H5.39622C5.07262 33.1344 4.81027 33.3958 4.81027 33.7184C4.81027 34.041 5.07262 34.3024 5.39622 34.3024H5.97927C6.30287 34.3024 6.56522 34.041 6.56522 33.7184C6.56522 33.3958 6.30287 33.1344 5.97927 33.1344Z" fill="black"/>
<path d="M7.28577 31.2474C6.96217 31.2474 6.69983 31.5089 6.69983 31.8315V32.4149C6.69983 32.7376 6.96217 32.999 7.28577 32.999C7.60936 32.999 7.8717 32.7376 7.8717 32.4149V31.8315C7.8717 31.5089 7.60936 31.2474 7.28577 31.2474Z" fill="black"/>
<path d="M7.28577 34.4375C6.96217 34.4375 6.69983 34.6989 6.69983 35.0216V35.6027C6.69983 35.9253 6.96217 36.1868 7.28577 36.1868C7.60936 36.1868 7.8717 35.9253 7.8717 35.6027V35.0216C7.8717 34.699 7.60936 34.4375 7.28577 34.4375Z" fill="black"/>
<path d="M22.4121 18.379C21.2509 18.5927 20.3411 19.502 20.3411 20.4492C20.3411 20.8832 20.5277 21.2771 20.8666 21.5584C21.198 21.8336 21.6459 21.9788 22.1389 21.9788C22.297 21.9788 22.4599 21.9639 22.6251 21.9335C23.7851 21.7194 24.6938 20.8101 24.6938 19.8633V14.8103C24.6938 14.7895 24.6926 14.769 24.6905 14.7488C24.6741 14.4802 24.553 14.2324 24.35 14.0623C24.1233 13.8721 23.8162 13.794 23.5056 13.8478L18.1454 14.7965C17.5931 14.8926 17.1605 15.3934 17.1605 15.9363V20.8595C16.8242 20.7625 16.443 20.7463 16.0487 20.8191C14.8873 21.0328 13.9776 21.9421 13.9776 22.8893C13.9776 23.3233 14.1642 23.7172 14.503 23.9985C14.8344 24.2737 15.2823 24.4189 15.7754 24.4189C15.9334 24.4189 16.0963 24.4041 16.2613 24.3736C17.4227 24.1599 18.3324 23.2506 18.3324 22.3034V18.0464L23.522 17.1278V18.4191C23.1861 18.3224 22.8058 18.3063 22.4121 18.379ZM22.4121 20.7842C22.0221 20.8559 21.7452 20.7671 21.6162 20.6601C21.5448 20.6008 21.513 20.5358 21.513 20.4493C21.513 20.1112 21.9884 19.6457 22.6248 19.5285H22.625C22.7228 19.5105 22.8134 19.5025 22.8964 19.5025C23.1431 19.5025 23.322 19.5723 23.4184 19.6522C23.4899 19.7116 23.5218 19.7767 23.5218 19.8634C23.5218 20.2013 23.0471 20.667 22.4121 20.7842ZM16.0486 23.2243C15.6582 23.2958 15.3815 23.2072 15.2526 23.1002C15.1812 23.0409 15.1494 22.9759 15.1494 22.8894C15.1494 22.5513 15.6249 22.0858 16.2612 21.9686C16.3594 21.9506 16.4505 21.9426 16.5337 21.9426C16.7814 21.9426 16.9607 22.0124 17.0573 22.0926C17.1287 22.1519 17.1605 22.217 17.1605 22.3035C17.1604 22.6416 16.6849 23.1071 16.0486 23.2243ZM18.3323 16.8593V15.9604C18.3373 15.9548 18.3444 15.9492 18.3484 15.9478L23.5218 15.0323V15.9408L18.3323 16.8593Z" fill="black"/>
<path d="M2.72231 11.8747C2.86911 11.587 2.75434 11.2351 2.4659 11.0887C2.17746 10.9424 1.82473 11.0567 1.67793 11.3444C0.591525 13.4732 -0.00683594 16.291 -0.00683594 19.2784C-0.00683594 22.2659 0.591525 25.0837 1.67793 27.2125C1.78137 27.4153 1.98715 27.532 2.20059 27.532C2.29004 27.532 2.38082 27.5114 2.4659 27.4682C2.75426 27.3218 2.86911 26.9699 2.72231 26.6823C0.638868 22.5998 0.638868 15.9571 2.72231 11.8747Z" fill="black"/>
<path d="M4.32432 14.7354C4.03573 14.5893 3.68307 14.7042 3.53659 14.9919C2.31292 17.395 2.31292 21.1598 3.53659 23.5628C3.63995 23.7657 3.84581 23.8827 4.05948 23.8827C4.1487 23.8827 4.23932 23.8622 4.32432 23.8192C4.61284 23.6731 4.72799 23.3213 4.58143 23.0335C3.52675 20.9624 3.52675 17.5923 4.58143 15.5212C4.72792 15.2333 4.61284 14.8816 4.32432 14.7354Z" fill="black"/>
</svg>
