<svg width="40" height="41" viewBox="0 0 40 41" fill="none" xmlns="http://www.w3.org/2000/svg">
<path d="M19.9695 0.472168C19.2525 0.472168 18.5361 0.510612 17.8231 0.587251C17.1697 0.653821 16.5243 0.762995 15.8876 0.89547C15.7644 0.921182 15.6411 0.948309 15.5178 0.976685C11.7663 1.82861 8.34065 3.74175 5.6518 6.48668C5.40177 6.74231 5.15698 7.00551 4.91762 7.2762C-2.34574 15.5931 -1.47407 28.2081 6.86462 35.4526C14.8478 42.3883 26.8646 41.9268 34.2894 34.3994C34.54 34.1438 34.7847 33.8806 35.0236 33.6099C38.2291 29.9691 39.9955 25.2884 39.9927 20.4431C39.9927 9.41334 31.028 0.472085 19.9695 0.472168ZM6.54149 7.48523C6.64695 7.37605 6.75641 7.27154 6.86387 7.16569C6.98801 7.04387 7.11148 6.92138 7.2383 6.80355C7.34976 6.6997 7.46456 6.59985 7.57869 6.49866C7.7075 6.38483 7.83565 6.27099 7.9678 6.16115C8.08394 6.06329 8.20341 5.96943 8.32221 5.8749C8.4557 5.76839 8.58918 5.66188 8.72668 5.55936C8.84815 5.46816 8.97163 5.37962 9.09577 5.29308C9.23393 5.19456 9.37275 5.09337 9.51358 5.0015C9.63973 4.91629 9.76721 4.83375 9.89536 4.75187C10.0382 4.66066 10.1817 4.5708 10.3265 4.48559C10.4569 4.40795 10.5882 4.33156 10.7203 4.25659C10.8681 4.17271 11.0164 4.09083 11.1655 4.01094C11.299 3.93996 11.4325 3.87048 11.5659 3.80258C11.7181 3.72602 11.8716 3.65213 12.0258 3.57957C12.1593 3.51633 12.2981 3.45309 12.4356 3.39317C12.5925 3.3266 12.7513 3.26003 12.9102 3.19346C13.0483 3.13688 13.1858 3.08163 13.3253 3.02837C13.4868 2.96713 13.6503 2.90988 13.8139 2.85263C13.9534 2.80403 14.0929 2.75543 14.2344 2.7095C14.4005 2.65624 14.5681 2.60698 14.7363 2.55839C14.8771 2.51778 15.0166 2.47584 15.1581 2.43789C15.2121 2.42392 15.2662 2.4126 15.3203 2.39862C13.3447 4.31192 11.8786 6.68647 11.0547 9.30725C9.47053 8.89052 7.93693 8.30187 6.48143 7.5518C6.50345 7.5285 6.52214 7.5052 6.54149 7.48523ZM5.58172 8.557C7.18498 9.42341 8.88511 10.0983 10.6469 10.5674C9.78323 13.5627 9.32987 16.6608 9.29934 19.7774H1.29679C1.44221 15.6676 2.94902 11.7218 5.58172 8.557ZM5.58172 32.3291C2.94919 29.1642 1.44237 25.2185 1.29679 21.1088H9.29934C9.32987 24.2253 9.78314 27.3234 10.6469 30.3187C8.88519 30.788 7.18507 31.4628 5.58172 32.3291ZM15.1541 38.4509C15.0193 38.4169 14.8798 38.373 14.7409 38.3324C14.5721 38.2831 14.4025 38.2339 14.2357 38.18C14.0949 38.1347 13.956 38.0861 13.8172 38.0375C13.653 37.9809 13.4888 37.923 13.3266 37.8611C13.1878 37.8085 13.051 37.7532 12.9135 37.6973C12.754 37.6308 12.5945 37.5642 12.4363 37.4976C12.3001 37.4377 12.1646 37.376 12.0298 37.3125C11.8743 37.2393 11.7195 37.1648 11.5626 37.0875C11.4291 37.021 11.2956 36.9544 11.1621 36.8818C11.0113 36.8013 10.8618 36.7187 10.7123 36.6335C10.5788 36.5596 10.452 36.4838 10.3232 36.4065C10.1763 36.3187 10.0322 36.2281 9.88801 36.1356C9.7612 36.055 9.63439 35.9732 9.50958 35.8893C9.36741 35.7934 9.22659 35.6936 9.08709 35.5937C8.96495 35.5065 8.84281 35.4193 8.72267 35.3274C8.58451 35.2236 8.44902 35.1164 8.3142 35.0086C8.19607 34.9147 8.0786 34.8215 7.96313 34.725C7.82964 34.6145 7.70083 34.4993 7.57135 34.3848C7.45788 34.2843 7.34375 34.1851 7.23296 34.0826C7.10548 33.9641 6.982 33.8409 6.85786 33.7191C6.7504 33.6133 6.64094 33.5087 6.53549 33.4002C6.51613 33.3796 6.49744 33.3583 6.47809 33.3383C7.93351 32.5879 9.46711 31.999 11.0514 31.5822C11.8754 34.2029 13.3414 36.5774 15.3169 38.4908C15.2629 38.4769 15.2081 38.4655 15.1541 38.4509ZM19.3022 39.0301C16.4462 38.6253 13.9427 35.6523 12.3675 31.262C14.6448 30.7534 16.9688 30.4806 19.3022 30.4479V39.0301ZM19.3022 29.1165C16.8268 29.1489 14.3619 29.4422 11.9484 29.9912C11.1103 27.1031 10.6682 24.1151 10.6342 21.1088H19.3022V29.1165ZM19.3022 19.7774H10.6342C10.6682 16.771 11.1103 13.783 11.9484 10.8949C14.3619 11.4439 16.8269 11.7371 19.3022 11.7697V19.7774ZM19.3022 10.4383C16.9687 10.4058 14.6448 10.133 12.3675 9.62412C13.9427 5.23383 16.4462 2.26082 19.3022 1.85607V10.4383ZM34.3575 8.557C36.9901 11.7219 38.4969 15.6677 38.6425 19.7774H30.6399C30.6094 16.6608 30.1561 13.5627 29.2924 10.5674C31.0541 10.098 32.7542 9.42324 34.3575 8.557ZM24.7798 2.43457C24.92 2.46918 25.0595 2.51312 25.1983 2.55373C25.3672 2.60299 25.5367 2.65225 25.7036 2.70617C25.8444 2.75144 25.9832 2.80004 26.122 2.84863C26.2862 2.90522 26.4504 2.96313 26.6126 3.02504C26.7514 3.07763 26.8883 3.13288 27.0257 3.1888C27.1853 3.25537 27.3448 3.32194 27.503 3.38851C27.6391 3.44843 27.7746 3.51009 27.9094 3.57358C28.0649 3.6468 28.2198 3.72136 28.3766 3.79858C28.5101 3.86515 28.6436 3.93172 28.7771 4.00429C28.9279 4.08484 29.0774 4.16738 29.2269 4.25259C29.3604 4.32648 29.4872 4.40237 29.6161 4.47959C29.7629 4.56747 29.9071 4.658 30.0512 4.75053C30.178 4.83108 30.3049 4.91296 30.4297 4.99684C30.5718 5.0927 30.712 5.19189 30.8515 5.29175C30.9743 5.37895 31.0964 5.46683 31.2172 5.55803C31.3547 5.66121 31.4895 5.76839 31.625 5.87623C31.7425 5.96943 31.8606 6.06263 31.9761 6.15982C32.1096 6.27033 32.2384 6.38549 32.3679 6.49999C32.4814 6.60051 32.5955 6.6997 32.7063 6.80222C32.8338 6.92071 32.9572 7.04387 33.0814 7.16569C33.1888 7.27154 33.2983 7.37605 33.4038 7.48456C33.4231 7.5052 33.4418 7.5265 33.4612 7.54647C32.0057 8.29688 30.4721 8.88577 28.8879 9.30259C28.0623 6.68156 26.5943 4.30726 24.617 2.39462C24.671 2.4086 24.7258 2.41992 24.7798 2.43457ZM20.6371 1.85607C23.493 2.26082 25.9966 5.23383 27.5717 9.62412C25.2944 10.1327 22.9705 10.4056 20.6371 10.4383V1.85607ZM20.6371 11.7697C23.1124 11.7372 25.5773 11.444 27.9909 10.8949C28.8289 13.783 29.271 16.771 29.305 19.7774H20.6371V11.7697ZM20.6371 21.1088H29.305C29.2711 24.1151 28.829 27.1031 27.9909 29.9912C25.5773 29.4422 23.1124 29.149 20.6371 29.1165V21.1088ZM20.6371 39.0301V30.4479C22.9706 30.4803 25.2944 30.7532 27.5717 31.262C25.9966 35.6523 23.493 38.6253 20.6371 39.0301ZM33.3977 33.4009C33.2923 33.5094 33.1835 33.6139 33.076 33.7198C32.9519 33.8416 32.8278 33.9647 32.7003 34.0832C32.5895 34.1864 32.4754 34.283 32.3619 34.3861C32.2324 34.5006 32.1036 34.6151 31.9714 34.7256C31.8546 34.8228 31.7358 34.9167 31.617 35.0112C31.4835 35.1177 31.3501 35.2243 31.2126 35.3268C31.0911 35.418 30.9676 35.5065 30.8435 35.593C30.7053 35.6916 30.5665 35.7928 30.4257 35.8846C30.2995 35.9698 30.172 36.0524 30.0439 36.1336C29.9011 36.2255 29.7571 36.3143 29.6121 36.3999C29.4786 36.4778 29.3511 36.5536 29.2196 36.6289C29.0718 36.7128 28.9233 36.7946 28.7738 36.8745C28.6403 36.9455 28.5068 37.015 28.3733 37.0829C28.2211 37.1594 28.0676 37.2333 27.9134 37.3059C27.7799 37.3691 27.6411 37.4324 27.5036 37.4923C27.3468 37.5589 27.1879 37.6254 27.0291 37.692C26.8909 37.7479 26.7534 37.8038 26.6146 37.8564C26.4517 37.9183 26.2882 37.9763 26.124 38.0328C25.9852 38.0814 25.8464 38.13 25.7056 38.1753C25.5387 38.2292 25.3718 38.2785 25.2016 38.3271C25.0622 38.3684 24.922 38.4096 24.7812 38.4476C24.7271 38.4615 24.673 38.4729 24.619 38.4868C26.5946 36.5735 28.0607 34.199 28.8846 31.5782C30.4687 31.9949 32.0023 32.5836 33.4578 33.3337C33.4358 33.3576 33.4171 33.3809 33.3977 33.4009ZM34.3575 32.3291C32.7543 31.4627 31.0541 30.7879 29.2924 30.3187C30.156 27.3234 30.6094 24.2253 30.6399 21.1088H38.6425C38.4971 25.2185 36.9902 29.1643 34.3575 32.3291Z" fill="black"/>
</svg>
