<svg width="17" height="20" viewBox="0 0 17 20" fill="none" xmlns="http://www.w3.org/2000/svg">
<path d="M5.81801 19.0637C3.04326 19.0477 0.748047 13.3835 0.748047 10.4989C0.748047 5.78685 4.28289 4.75525 5.64519 4.75525C6.25912 4.75525 6.91468 4.99635 7.49289 5.20969C7.89722 5.35852 8.31539 5.51214 8.54797 5.51214C8.68718 5.51214 9.01522 5.38146 9.30486 5.26679C9.92254 5.02089 10.6912 4.71527 11.5862 4.71527C11.5878 4.71527 11.59 4.71527 11.5915 4.71527C12.2599 4.71527 14.2863 4.86194 15.5045 6.69151L15.7899 7.12035L15.3792 7.43026C14.7925 7.87298 13.7219 8.68056 13.7219 10.2802C13.7219 12.1749 14.9344 12.9035 15.5168 13.2539C15.7739 13.4086 16.0401 13.5681 16.0401 13.917C16.0401 14.1447 14.2222 19.0355 11.5825 19.0355C10.9365 19.0355 10.4799 18.8413 10.0772 18.6701C9.66968 18.4967 9.31815 18.3474 8.73728 18.3474C8.44284 18.3474 8.07051 18.4866 7.67634 18.6344C7.13767 18.8354 6.52796 19.0637 5.83614 19.0637H5.81801Z" fill="#1617DB"/>
<path d="M11.8658 0.420105C11.9346 2.89899 10.1618 4.61873 8.39109 4.51087C8.09931 2.53264 10.1616 0.420105 11.8658 0.420105Z" fill="#1617DB"/>
</svg>
